<svg xmlns="http://www.w3.org/2000/svg" id="business-person-sending-mail" x="0" y="0" enable-background="new 0 0 515 515" version="1.1" viewBox="0 0 515 515" xml:space="preserve"><path fill="#dadaf5" d="M447.5308838,326.1233521v18.9798889h-59.75c-1.5800781,0-2.8500977-1.2797852-2.8500977-2.8500977
								v-16.1297913c0-6.3399048,5.1401062-11.480011,11.4799194-11.480011h39.6401978
								C442.3909912,314.6433411,447.5308838,319.7834473,447.5308838,326.1233521z"></path><path fill="#eaeafa" d="M424.5704041,345.1027527v-18.9794006c0-6.3301086,5.1503906-11.4794922,11.4804993-11.4794922
								c2.6445007,0,5.2391968,0.8631897,7.7118835,2.5653992c2.3594055,1.6229858,3.7684937,4.3661804,3.7684937,7.3388977
								v20.5545959H424.5704041z"></path><path fill="#c8c8ee" d="M426.5704041,343.1027527v-16.9794006c0-5.2276001,4.2528992-9.4794922,9.4804993-9.4794922
								c2.2303772,0,4.4443054,0.7440796,6.5780945,2.2128906c1.8173828,1.25,2.9022827,3.3778992,2.9022827,5.6914063v18.5545959
								H426.5704041z"></path><path fill="#dadaf5" d="M475.569397,345.103241h-57.0906982v-1.8883057h57.0906982
							c0.5213928,0,0.9440918,0.4227295,0.9440918,0.9442139l0,0
							C476.5134888,344.680542,476.0907898,345.103241,475.569397,345.103241z"></path><path fill="#c8c8ee" d="M399.2743835,329.8901367c0-4.0058899,3.235321-7.3417969,7.3418274-7.3417969
							c4.1063843,0,7.308075,3.1679993,7.308075,6.6376953c0,2.815918-1.5253906,4.1738281-3.2514954,4.1738281
							c-1.3075867,0-2.0957031-0.5532227-2.480896-1.1733093c-0.6036072,0.6200867-1.4248962,1.1733093-2.5982056,1.1733093
							c-1.6763,0-3.0336914-1.2402039-3.0336914-3.1679077c0-2.3804016,1.8604126-4.1904907,3.8046875-4.1904907
							c1.2070007,0,1.9277039,0.5698853,2.3633118,1.2402954l0.050293-0.3018188
							c0.1006165-0.5527039,0.4023132-0.8378906,0.8720093-0.8378906c0.4859009,0,0.9047852,0.4190063,0.8041992,1.0224915
							l-0.6366882,3.5869141c-0.0503235,0.3016968-0.0840149,0.5697937-0.0840149,0.7207031
							c0,0.7207031,0.4864197,1.1903992,1.3077087,1.1903992c1.1898804,0,2.2124023-1.1401062,2.2124023-3.4365234
							c0-3.0839844-2.8326111-6.0004883-6.6376953-6.0004883c-3.804718,0-6.670929,3.0170898-6.670929,6.7045898
							c0,3.7046204,2.8325195,6.6714172,6.8051147,6.6714172c1.6088867,0,2.7822876-0.3521118,3.9892883-1.0396118
							c0.0503235-0.0332031,0.1338196-0.050293,0.1841125-0.050293c0.1509094,0,0.2684937,0.1509094,0.2684937,0.3017883
							c0,0.1343079-0.0672913,0.2183228-0.1507874,0.2515259c-1.2408142,0.737793-2.6148071,1.1732788-4.2911072,1.1732788
							C402.4593811,337.1982422,399.2743835,333.8964539,399.2743835,329.8901367z M408.3592834,329.2534485
							c0-1.0727844-0.7543945-1.8106079-1.7596741-1.8106079c-1.2237244,0-2.3135071,1.1401978-2.3135071,2.6484985
							c0,1.1567078,0.7211914,1.8099976,1.7601929,1.8099976
							C407.269989,331.9013367,408.3592834,330.6948547,408.3592834,329.2534485z"></path><rect width="6.949" height="78.578" x="411.53" y="345.103" fill="#dadaf5"></rect><rect width="6.949" height="8.663" x="411.53" y="345.103" fill="#c8c8ee"></rect><path fill="#c8c8ee" d="M421.1338806,324.04776c0,0.9295044-0.753479,1.6828918-1.6828918,1.6828918
					c-0.9293823,0-1.6827698-0.7533875-1.6827698-1.6828918c0-0.9294128,0.7533875-1.6828003,1.6827698-1.6828003
					C420.3804016,322.3649597,421.1338806,323.1183472,421.1338806,324.04776z"></path><polygon fill="#c8c8ee" points="419.918 297.873 419.918 324.383 418.979 324.383 418.979 302.603 411.469 302.603 411.469 297.873"></polygon><path fill="#f6f6fe" d="M245.1464996 130.0271454c.0243988-.823288-.1572876-1.6353912-.6260071-2.3203964-.8402863-1.2277985-2.3830872-1.8234024-3.8698883-1.8827972-1.4868011-.0594025-2.9492035.3414993-4.3829041.7389984 2.447403-1.9770966 3.8105011-5.2218018 3.5088959-8.3536987-.302002-3.1319046-2.2588959-6.0568008-5.0395966-7.5299988-2.9302063-1.5530014-6.4766998-1.4787064-9.7089996-.7369995-7.5733032 1.7370987-14.2342072 7.0824966-17.5702057 14.0996933-4.8364868-4.1573944-11.5606995-6.0248947-17.8479004-4.9572983-6.2876892 1.0678024-12.0185852 5.0503006-15.2118988 10.5708084l-.0252991.3716888H245.1464996zM468.8164063 163.8153534l-.607605-1.5749054c-.4298096-1.1141968-.8905945-2.2738953-1.7875977-3.0623932-.8970032-.7884064-2.3713074-1.0588989-3.2662048-.2683105 1.5354004-2.1289978 1.934082-5.030899 1.0299988-7.4950867-.9042053-2.4643097-3.0851135-4.4197083-5.6332092-5.050415-2.7839966-.6890869-5.7008972.1409149-8.4101868 1.081604-2.7483826.9544067-5.5006104 2.0559082-7.775116 3.8702087-2.274292 1.8143921-4.0398865 4.4506989-4.2034912 7.3554993-6.5906982-2.3511047-13.7615051-3.0569-20.6842041-2.0357971-2.0924988.3086853-4.2140808.7934875-5.9856873 1.9493866s-3.1477966 3.099411-3.1336975 5.2145996l.1945801.0156097H468.8164063z"></path><g><path fill="#dadaf5" d="M139.4179993,305.4060364l-0.0175934-1c1.8378906-0.032196,3.7939911-0.1029968,5.9785004-0.2157898
				l0.0507965,0.9989929C143.2344055,305.3025513,141.2676086,305.3733521,139.4179993,305.4060364z M133.3926086,305.3641357
				c-2.125-0.0742798-4.0937042-0.2114868-6.0195084-0.4189758l0.107399-0.9941101
				c1.9013977,0.2049866,3.8467102,0.3403015,5.9472961,0.4140015L133.3926086,305.3641357z M151.4268036,304.8230591
				l-0.0684052-0.9980164l5.9873047-0.4136047l0.066391,0.9981079L151.4268036,304.8230591z M181.2978973,304.2625427
				c-1.8798981-0.1923828-3.881897-0.324707-5.9512024-0.3935852l0.0332031-0.9989929
				c2.0917969,0.0692749,4.1172028,0.2030945,6.0195007,0.3974915L181.2978973,304.2625427z M163.3936005,304.0462646
				l-0.0507965-0.9990234c2.1981964-0.1118774,4.1649933-0.1821899,6.0126953-0.2149048l0.0176086,1
				C167.5362091,303.864563,165.5801086,303.9344482,163.3936005,304.0462646z M121.3993988,304.0266418
				c-2.0194931-0.4105835-3.9891891-0.9248047-5.8563995-1.5282898l0.3066025-0.9511108
				c1.8320999,0.5913086,3.7666016,1.0960999,5.7490997,1.5L121.3993988,304.0266418z M109.9043045,300.2825623
				c-1.8095016-0.8491211-3.5927048-1.8379211-5.3008041-2.9375l0.5410995-0.8408203
				c1.6709061,1.0757141,3.4160004,2.042511,5.1855011,2.8730164L109.9043045,300.2825623z M99.7305069,293.7469482
				c-1.5264053-1.2807922-3.0059052-2.6817017-4.3975067-4.1630859l0.7285995-0.6846008
				c1.3652039,1.4525757,2.8154068,2.8262024,4.3115005,4.0820007L99.7305069,293.7469482z M91.440506,284.9485474
				c-1.1962967-1.5961914-2.3291016-3.2875977-3.3682022-5.0263062l0.8593979-0.5126953
				c1.0205078,1.7088928,2.1338043,3.3710938,3.3095016,4.9393921L91.440506,284.9485474z M85.2393036,274.5774536
				c-0.8496017-1.8178101-1.6182022-3.7015991-2.285202-5.5986023l0.9434052-0.3320007
				c0.6561966,1.8662109,1.4120941,3.7192078,2.2479935,5.5078125L85.2393036,274.5774536z M81.2334061,263.1809387
				c-0.1367035-0.5585022-0.2646027-1.1195984-0.3847046-1.6810913c-0.2958984-1.3876953-0.5527954-2.8179016-0.7646942-4.2510071
				l0.9902954-0.1454773c0.2080002,1.4115906,0.460907,2.8208008,0.7529068,4.1875
				c0.1180954,0.5526733,0.2440948,1.1039734,0.3778915,1.6537781L81.2334061,263.1809387z M79.4649048,251.2395477
				c-0.0899048-1.4819031-0.1358032-3.0034027-0.1358032-4.5218964c0-0.5048981,0.0049057-1.0097961,0.0147018-1.5151978
				l1,0.0195923c-0.0097961,0.4985046-0.0147018,0.9974976-0.0147018,1.4956055
				c0,1.4980011,0.0450058,2.9994965,0.1338043,4.4613953L79.4649048,251.2395477z M80.6836014,239.2703552L79.6875,239.1756439
				c0.1885071-1.9799957,0.4483032-3.992691,0.7754059-5.9828949l0.9863968,0.1620941
				C81.1270065,235.3225555,80.8692093,237.312851,80.6836014,239.2703552z M82.6044998,227.4998474l-0.9745941-0.2245941
				c0.4433975-1.9248047,0.9570007-3.887207,1.5282974-5.831604l0.9589996,0.2812958
				C83.5518036,223.6507568,83.0430069,225.5935516,82.6044998,227.4998474z M85.9600067,216.044754l-0.9434052-0.3339996
				c0.4893036-1.3774109,1.0118027-2.7631989,1.5537033-4.1195984c0.2001953-0.5024109,0.4042969-1.0039063,0.6113968-1.5034027
				l0.9238052,0.3817902c-0.205101,0.4966125-0.4072037,0.9942017-0.6074066,1.4927063
				C86.9619064,213.3064575,86.4434052,214.6800537,85.9600067,216.044754z M90.5195999,205.002243l-0.9062958-0.4237976
				c0.8281021-1.7689972,1.7246017-3.5849915,2.6641006-5.3978882l0.8885956,0.4598999
				C92.2315063,201.4417572,91.3409042,203.2454529,90.5195999,205.002243z M96.0147018,194.3811493l-0.8711014-0.4911957
				c0.9541016-1.6914063,1.9756088-3.4384003,3.0361023-5.1928101l0.8555069,0.5175018
				C97.9805069,190.9602509,96.9639053,192.6985474,96.0147018,194.3811493z M102.20121,184.1331482l-0.8418045-0.539093
				c1.0790939-1.6870117,2.1768036-3.3623047,3.2910004-5.0283051l0.8320999,0.5556946
				C104.3721008,180.7815552,103.2764053,182.4519501,102.20121,184.1331482z M108.8535004,174.1668549l-0.822197-0.5684052
				c1.1387024-1.6479034,2.2881012-3.2870941,3.4432983-4.9199066l0.8163986,0.5772095
				C111.1377029,170.8855438,109.990303,172.5218506,108.8535004,174.1668549z M115.7549057,164.3494568l-0.8222046-0.5693054
				c1.3281021-1.9156036,2.375-3.4994965,3.2938995-4.9844055l0.8496094,0.5263977
				C118.1485062,160.8221436,117.092804,162.419754,115.7549057,164.3494568z M122.0205002,154.0413513l-0.8983994-0.4403992
				c0.9268036-1.8897095,1.6563034-3.683609,2.2304993-5.483902l0.9531021,0.3036957
				C123.7159042,150.2688446,122.9688034,152.107254,122.0205002,154.0413513z M125.6114044,142.477356l-0.9921951-0.1191101
				c0.146492-1.2236023,0.2206955-2.4756012,0.2206955-3.7216949c0-0.7173004-0.0254059-1.4487-0.0742035-2.1743011
				l0.9980011-0.0673981c0.0507965,0.7480927,0.0762024,1.5019989,0.0762024,2.2416992
				C125.8399048,139.9222565,125.7627029,141.2146454,125.6114044,142.477356z M123.8399048,130.6326447
				c-0.482399-1.9125977-1.1358032-3.789093-1.9413986-5.5761948l0.9120941-0.4111023
				c0.8291016,1.8408051,1.5018997,3.7728958,1.9980011,5.7432022L123.8399048,130.6326447z M119,119.9173508
				c-1.1307907-1.6338043-2.4090958-3.1499023-3.7997971-4.5064011l0.6992035-0.7157974
				c1.4355927,1.4013977,2.7558975,2.9667969,3.9228973,4.6528015L119,119.9173508z M110.5967026,111.7332535
				c-1.6327972-1.0615005-3.3896027-1.9834061-5.2226028-2.7402039l0.380806-0.9244003
				c1.8905945,0.780304,3.7030945,1.7310028,5.3866959,2.8266983L110.5967026,111.7332535z M82.2695999,108.2449493
				l-0.3359985-0.9423981c1.8926086-0.6727982,3.8809052-1.1669998,5.9092026-1.4682007l0.1464996,0.9891968
				C86.0254059,107.1150513,84.1006012,107.5935516,82.2695999,108.2449493z M99.7373047,107.2366486
				c-1.9277039-0.4174957-3.8983994-0.6654968-5.8583984-0.7362976l0.0361938-0.9990005
				c2.0185013,0.0727005,4.0488052,0.3281021,6.0332031,0.7577972L99.7373047,107.2366486z"></path></g><g><path fill="#dadaf5" d="M302.7294922,327.3284607c-2.0028992-0.0190125-4.0292969-0.0937195-6.0223999-0.2212219
				l0.0643921-0.9979858c1.9746094,0.1264038,3.9824219,0.2001953,5.967804,0.2192078L302.7294922,327.3284607z
				 M308.7548828,327.2244568l-0.0448914-0.9989929c1.9823914-0.0884094,3.9873047-0.2304993,5.9580078-0.4229126
				l0.0976868,0.9950867C312.7763977,326.9920349,310.7548828,327.1355591,308.7548828,327.2244568z M320.7452087,326.0535583
				l-0.1504211-0.9883118c1.960907-0.2969055,3.9394226-0.6499023,5.8807983-1.0498047l0.2012024,0.9795227
				C324.718811,325.3982544,322.7226868,325.7542419,320.7452087,326.0535583z M332.5449829,323.6253357l-0.2519836-0.9677734
				c1.9179993-0.5010071,3.8486023-1.0601196,5.7362976-1.6616211l0.3027954,0.9530945
				C336.4277954,322.555542,334.4804993,323.1194458,332.5449829,323.6253357z M344.0253906,319.9695435l-0.3534851-0.9354858
				c1.8594055-0.7032166,3.7187805-1.4629211,5.5282898-2.2593079l0.4024048,0.9150085
				C347.7784119,318.4934387,345.9013977,319.2600403,344.0253906,319.9695435z M355.0508118,315.1150513l-0.4512024-0.8926086
				c1.7685852-0.894989,3.5361938-1.8504944,5.2519836-2.8403015l0.5,0.8662109
				C358.6192017,313.2474365,356.8359985,314.2117615,355.0508118,315.1150513z M365.4736938,309.0491638l-0.5644836-0.8262024
				c1.7167969-1.1708984,3.3105774-2.379425,4.7392883-3.5917969l0.6464844,0.7626953
				C368.8408813,306.6282349,367.217804,307.8582458,365.4736938,309.0491638z M374.6426086,301.1653442l-0.7480164-0.6630859
				c1.3573914-1.5327148,2.5332031-3.1303101,3.4951172-4.7474976l0.859375,0.5106812
				C377.2558899,297.9368591,376.0419922,299.5857544,374.6426086,301.1653442z M380.7529907,290.703949l-0.953186-0.3008118
				l0.125-0.4091797c0.5058899-1.7138062,0.8242798-3.5161133,0.9462891-5.3583984l0.9981079,0.0663757
				c-0.1279907,1.9156189-0.4589844,3.7911072-0.9854126,5.5743103L380.7529907,290.703949z M380.6464844,278.7508545
				c-0.2528992-1.8604126-0.6825867-3.8037109-1.2772827-5.7753906l0.9570007-0.2891235
				c0.6103821,2.022522,1.0507813,4.0176086,1.3106079,5.929718L380.6464844,278.7508545z M377.2998047,267.4099426
				c-0.7597046-1.7348022-1.6513062-3.5278015-2.6504211-5.3294983l0.875-0.4844055
				c1.0137024,1.828125,1.9190063,3.6494141,2.6914978,5.4125977L377.2998047,267.4099426z M371.5762024,256.9646606
				c-1.0703125-1.6821136-2.1748047-3.3476105-3.2812195-5.0117035l0.8320007-0.5537109
				c1.110321,1.6699066,2.2187195,3.3403015,3.2929993,5.0283051L371.5762024,256.9646606z M364.992218,246.9344482
				c-0.7558289-1.1748047-1.421936-2.2393036-2.0303345-3.2476044c-1.2879944,0.171402-2.5536804,0.2578125-3.7791748,0.2578125
				l-0.3653259-0.0019073l0.0117188-1l0.351593,0.0019073c1.0477905,0,2.125-0.0653992,3.2217102-0.1953125
				c-0.1895142-0.3212891-0.3740234-0.6386871-0.554718-0.953598l0.867218-0.4971008
				c0.2460938,0.4282074,0.4989929,0.8612976,0.7626953,1.3037109c0.4013062-0.0620117,0.805603-0.1328125,1.2118835-0.2118988
				l0.1914063,0.9814911c-0.2832031,0.0550995-0.5653992,0.1063995-0.8476868,0.1538086
				c0.5458984,0.8945007,1.1376953,1.8383942,1.8007813,2.8675995L364.992218,246.9344482z M352.7676086,243.1106567
				c-1.898407-0.5044098-3.8076172-1.2519073-5.6758118-2.2226105l0.4609985-0.8876953
				c1.8037109,0.9369965,3.6445007,1.6582031,5.4707031,2.1434937L352.7676086,243.1106567z M370.7276001,241.7376556
				l-0.3378906-0.9414063c1.343689-0.4828949,2.7352905-1.0552063,4.1366882-1.7006989
				c0.4424133-0.2041016,0.8838196-0.4154968,1.3241882-0.6347961l0.4453125,0.8954926
				c-0.4482117,0.2232056-0.8994141,0.4394989-1.3515015,0.6475067
				C373.5176086,240.6614532,372.0986938,241.2444458,370.7276001,241.7376556z M341.9667969,237.625351
				c-1.5174866-1.1425934-3.0244141-2.4282074-4.6064148-3.9302063l0.6894226-0.7256012
				c1.5536804,1.4756012,3.0312805,2.7373047,4.5185852,3.8570099L341.9667969,237.625351z M359.0556946,236.4368439
				c-0.719696-1.5580902-1.3232117-3.0404968-1.843811-4.5307922c-0.1288757-0.3661957-0.2518921-0.7368011-0.3690796-1.1103058
				l0.9550781-0.2987976c0.1133118,0.3628082,0.2324219,0.7225952,0.3574219,1.078598
				c0.5106812,1.4604034,1.102478,2.9131012,1.8085938,4.4423981L359.0556946,236.4368439z M381.5352173,236.3011475
				l-0.5625305-0.8271942c1.6972961-1.152298,3.25-2.3970032,4.6152039-3.6981964l0.6895142,0.723587
				C384.8731079,233.8387451,383.2774048,235.1180573,381.5352173,236.3011475z M333.1503906,229.3689575
				c-1.1719055-1.2841034-2.4296875-2.7246094-3.9598999-4.5341034l0.7636108-0.6455994
				c1.5214844,1.7993927,2.7724915,3.2310028,3.9346008,4.5058899L333.1503906,229.3689575z M390.2333984,227.8597565
				l-0.8300171-0.558609c1.133728-1.6835938,2-3.4458008,2.5761108-5.2373047l0.9512024,0.305603
				C392.3272095,224.2508545,391.4190063,226.0979462,390.2333984,227.8597565z M355.531311,224.8601532
				c-0.2012024-1.5156097-0.3028259-3.0361023-0.3028259-4.5205078c0.0010071-0.5213928,0.0127258-1.0394897,0.0381165-1.5560913
				l0.9981079,0.0477905c-0.0234985,0.5010071-0.0352173,1.0044098-0.0362244,1.5093079
				c0,1.4394989,0.0987244,2.9160004,0.2950134,4.3876953L355.531311,224.8601532z M325.343811,220.2185516
				c-1.4102173-1.7279968-2.6231079-3.2807007-3.7080078-4.746994l0.8046875-0.5948029
				c1.0751953,1.4532013,2.2783203,2.9936981,3.6787109,4.7099915L325.343811,220.2185516z M392.842804,216.3230438
				c-0.039093-1.9208984-0.3994141-3.8432007-1.0693054-5.7137909l0.9414063-0.3368988
				c0.7070007,1.9720917,1.0858765,4.0013885,1.1278992,6.0301971L392.842804,216.3230438z M357.1513977,213.0174561
				l-0.9667969-0.2588043c0.5487976-2.0474091,1.3310852-3.9501953,2.3251953-5.6548004l0.8633118,0.5039063
				C358.4238892,209.2356567,357.6758118,211.0555573,357.1513977,213.0174561z M318.2255859,210.4915466
				c-0.7225952-1.1542969-1.3983765-2.3168945-2.0067749-3.4550934c-0.3233032-0.6045074-0.6348267-1.2167969-0.9326172-1.8364105
				l0.9003906-0.4335938c0.2919006,0.6069031,0.5976257,1.2064972,0.9140015,1.7982941
				c0.5987244,1.1187134,1.2617188,2.2608032,1.9727173,3.3955078L318.2255859,210.4915466z M388.9882813,205.4969482
				c-1.2098999-1.5791016-2.6337891-2.9179993-4.2304993-3.9794922l0.5528259-0.8330078
				c1.6893921,1.1230011,3.1942749,2.5375977,4.4707031,4.2041016L388.9882813,205.4969482z M363.0469055,203.0979462
				l-0.6660156-0.7451019c0.2441101-0.218689,0.4960938-0.4310913,0.7559204-0.6376953
				c1.3299866-1.0619965,2.8309937-1.9369965,4.4608765-2.6006012l0.3769226,0.9257965
				c-1.5410156,0.6278992-2.9589233,1.4541016-4.2148132,2.456604
				C363.515686,202.6922455,363.2774048,202.8919525,363.0469055,203.0979462z M313.0263977,199.5721436
				c-0.6376953-1.9892883-1.1034851-3.9799957-1.3837891-5.9164886l0.9902039-0.1436005
				c0.2714844,1.8822937,0.7246704,3.8183899,1.3466797,5.7543945L313.0263977,199.5721436z M379.4423828,199.2010498
				c-1.8690796-0.4589996-3.8348999-0.6226044-5.7997742-0.4786072l-0.0723267-0.996994
				c2.0674133-0.1508942,4.1416016,0.0200043,6.1104126,0.5048981L379.4423828,199.2010498z M312.3662109,187.6297455
				l-0.9980164-0.0576019c0.0263977-0.4664001,0.0653992-0.9326935,0.1162109-1.397995
				c0.1679993-1.5386047,0.4745789-3.089798,0.9091797-4.6118011l0.960907,0.2743988
				c-0.4188843,1.467804-0.7138062,2.9638977-0.8760071,4.4458008
				C312.4296875,186.7312469,312.3926086,187.1800537,312.3662109,187.6297455z M315.5409851,176.3665466l-0.8885803-0.4589996
				c0.905304-1.7514954,2-3.4785004,3.2539063-5.1333008l0.7969055,0.6035004
				C317.4844055,172.9871521,316.4199829,174.6658478,315.5409851,176.3665466z M322.6260071,166.942749l-0.6992188-0.7158966
				c1.4258118-1.3925018,2.9775085-2.7167969,4.6123047-3.9345093l0.5977173,0.801712
				C325.5380859,164.2854462,324.0205078,165.5804443,322.6260071,166.942749z M332.1103821,159.8518524l-0.4980774-0.8670959
				c1.6786804-0.9620056,3.4902954-1.8863068,5.3837891-2.7481079l0.4141235,0.910202
				C335.5449829,157.9954529,333.7608032,158.9056549,332.1103821,159.8518524z M342.9267883,154.8855438l-0.3476868-0.9375
				c1.7714844-0.6557007,3.6376953-1.2894897,5.7051086-1.9375l0.2987976,0.9541016
				C346.5322876,153.607254,344.6817017,154.2356567,342.9267883,154.8855438z M354.3243103,151.2727509l-0.2696228-0.9627991
				c1.9306946-0.5401001,3.8662109-1.0601044,5.7940063-1.5771942l0.2597046,0.9657898
				C358.1827087,150.2146454,356.2510071,150.7337494,354.3243103,151.2727509z"></path></g><g><polygon fill="#dadaf5" points="405.875 135.386 341.041 150.65 345.136 154.92"></polygon><polygon fill="#eaeafa" points="405.875 135.386 328.25 174.54 339.34 154.92"></polygon><polygon fill="#eaeafa" points="405.875 135.386 352.568 140.463 341.041 150.65"></polygon><polygon fill="#dadaf5" points="344.235 166.46 351.19 172.779 405.873 135.388"></polygon><polygon fill="#c8c8ee" points="344.235 166.46 347.088 169.052 405.873 135.388"></polygon></g><g><polygon fill="#dadaf5" points="41.963 89.819 106.798 105.083 102.703 109.353"></polygon><polygon fill="#eaeafa" points="41.963 89.819 119.588 128.973 108.499 109.353"></polygon><polygon fill="#eaeafa" points="41.963 89.819 95.271 94.897 106.798 105.083"></polygon><polygon fill="#dadaf5" points="103.603 120.893 96.649 127.212 41.966 89.821"></polygon><polygon fill="#c8c8ee" points="103.603 120.893 100.75 123.486 41.966 89.821"></polygon></g><g><path fill="#fc8e8e" d="M359.72229,292.7669373l-106.5799866,98.0103149l-106.5700073-98.0103149l97.2630005-68.5320892
				c5.581604-3.9326935,13.0325928-3.9328918,18.6142883-0.0003967L359.72229,292.7669373z"></path><path fill="#eaeafa" d="M340.9324036,390.7772522H165.3622131V257.0535583c0-2.7974091,2.2676849-5.0651093,5.0651855-5.0651093
				H335.867218c2.7973938,0,5.0651855,2.2677002,5.0651855,5.0651093V390.7772522z"></path><rect width="137.95" height="4.217" x="184.172" y="272.339" fill="#c8c8ee"></rect><rect width="117.061" height="4.217" x="184.172" y="286.469" fill="#c8c8ee"></rect><rect width="82.594" height="4.217" x="184.172" y="300.598" fill="#c8c8ee"></rect><rect width="137.95" height="4.217" x="184.172" y="314.728" fill="#c8c8ee"></rect><linearGradient id="SVGID_1_" x1="146.572" x2="288.671" y1="358.108" y2="358.108" gradientUnits="userSpaceOnUse"><stop offset=".004" stop-color="#fcb3b3"></stop><stop offset="1" stop-color="#fc8e8e"></stop></linearGradient><path fill="url(#SVGID_1_)" d="M146.5715027,292.7713623l142.099884,130.6734009H157.4499969
				c-6.0079956,0-10.8784943-4.8705139-10.8784943-10.8786011V292.7713623z"></path><linearGradient id="SVGID_2_" x1="217.622" x2="359.721" y1="358.108" y2="358.108" gradientUnits="userSpaceOnUse"><stop offset=".004" stop-color="#fcb3b3"></stop><stop offset="1" stop-color="#fc8e8e"></stop></linearGradient><path fill="url(#SVGID_2_)" d="M359.721405,292.7713623L217.6215057,423.4447632H348.842804
				c6.0080872,0,10.8786011-4.8705139,10.8786011-10.8786011V292.7713623z"></path></g><g><path fill="#c5cced" d="M482.5,425.1809387h-450c-0.8281002,0-1.5000019-0.6712952-1.5000019-1.5
								c0-0.8285828,0.6719017-1.5,1.5000019-1.5h450c0.8282166,0,1.5,0.6714172,1.5,1.5
								C484,424.5096436,483.3282166,425.1809387,482.5,425.1809387z"></path></g><g><path fill="#fcb3b3" d="M175.5066986,204.0481567c0.3332062,0.1663971,0.7102051,0.2556915,0.9371033,0.490097
				c0.3921051,0.4050903,0.3594055,0.8099976-0.0471954,1.2207031c-0.4072113,0.4113922-0.8630981,0.7748871-1.3005981,1.1557922
				c-0.0990143,0.0861969-0.2105103,0.1580963-0.3961029,0.2957001c0.3641968,0.0211945,0.6306915,0.0182953,0.8916016,0.0554047
				c0.6678925,0.0950928,0.9644012,0.6524963,0.6372986,1.2472992c-0.4001007,0.7276001-1.0906982,1.1461029-1.7835083,1.5468903
				c-0.3049011,0.1763-0.6408997,0.3013-0.9368896,0.4901123c-1.6882019,1.0761871-3.5696106,1.6268921-5.5183105,1.8995972
				c-1.695694,0.2373962-3.0585938,1.0466003-4.3101959,2.1221924c-0.2998047,0.2575989-0.5485992,0.5763092-0.8106995,0.8757019
				c-1.006897,1.1502991-2.0093994,2.3045044-3.0157013,3.455307c-0.0274048,0.0312958-0.0798035,0.0406952-0.157196,0.0780029
				c-0.08461-0.1191101-0.1755066-0.2348022-0.2534027-0.3588104c-1.2308044-1.9583893-2.4544983-3.9212036-3.6949005-5.8733978
				c-0.1867981-0.2938995-0.1555939-0.4196014,0.1199036-0.6622925c1.0103912-0.890213,1.975296-1.8323059,2.9519958-2.7604065
				c0.2321014-0.2205048,0.436203-0.4703979,0.6665039-0.6929016c0.5820007-0.5621948,0.8674011-1.2565002,1.0262909-2.0419922
				c0.3009033-1.4868011,1.0786133-2.7769012,1.795517-4.0858002c0.817688-1.4929047,1.9493866-2.7125092,3.2210846-3.8432007
				c0.8635101-0.7676086,1.6861115-1.6201019,2.1416016-2.7432098c0.1345062-0.3318024,0.3874054-0.6230927,0.6192017-0.9057922
				c0.2317047-0.2824097,0.5722046-0.2460022,0.7639008,0.0834961c0.3975983,0.6833954,0.3406982,1.4031067,0.1177063,2.1275024
				c-0.4206085,1.3667908-1.3421021,2.4116974-2.2320099,3.4768982c-0.1362,0.1629944-0.2725983,0.3256989-0.42099,0.5030975
				c0.1851959,0.4076996,0.5159912,0.5370026,0.9001923,0.3800049c0.936203-0.3827057,1.9060059-0.7203064,2.7725983-1.2288055
				c2.6148071-1.5345001,5.176712-3.1589966,7.7855988-4.7036896c0.4349976-0.2575073,0.9974976-0.3747101,1.5098114-0.4043121
				c0.4556885-0.0262909,0.6798859,0.3881073,0.4195862,0.7637024c-0.3688965,0.5321045-0.8098907,1.0334015-1.2967987,1.4602966
				c-0.8983917,0.7876129-1.8345947,1.5353088-2.7887878,2.2546997c-0.8218079,0.6197052-1.6858063,1.1841125-2.5405121,1.7589111
				c-0.4852905,0.3264008-0.9895935,0.624588-1.5652924,0.9857941c0.1591949,0.0780029,0.2503967,0.1643982,0.3179016,0.1488037
				c0.3238983-0.0751038,0.6464996-0.1634064,0.9602051-0.2736053c0.8491974-0.2980042,1.6731873-0.7066956,2.5452881-0.8908997
				c1.0782013-0.2276917,1.4764099,0.4465027,1.3605957,1.2308044c-0.0672913,0.4559021-0.4034882,0.7696991-0.8063965,0.9971008
				C175.8809052,203.8025513,175.6791077,203.9400482,175.5066986,204.0481567z"></path><path fill="#f0f2fc" d="M150.8840942,214.214447l5.9124146-4.7003021c1.8438873-1.4658966,4.7311859-1.3080902,6.4431,0.352005
				l0.3217926,0.3121033c1.7118073,1.6600952,1.5980988,4.1922913-0.2458038,5.6582031l-5.9122925,4.7003937
				c-1.8368073,1.4602051-4.7176971,1.3087006-6.4295044-0.3513947l-0.3217926-0.3121033
				C148.9401093,218.21315,149.0473022,215.6747437,150.8840942,214.214447z"></path><linearGradient id="SVGID_3_" x1="2934.235" x2="2993.84" y1="219.115" y2="219.115" gradientTransform="matrix(-1 0 0 1 3096.17 0)" gradientUnits="userSpaceOnUse"><stop offset="0" stop-color="#f788a8"></stop><stop offset="1" stop-color="#ff4d7b"></stop></linearGradient><path fill="url(#SVGID_3_)" d="M135.8596039,244.2495575c1.9160919,0,3.7176056-0.7465057,5.0738983-2.102005l18.902298-18.90271
					c2.7984009-2.7979889,2.7984009-7.3507996,0-10.1486969c-1.3562012-1.3554993-3.1585999-2.1020966-5.0746918-2.1020966
					c-1.9169006,0-3.7192993,0.7465973-5.0748138,2.1020966l-12.9889984,12.9889984l-21.4070892-29.1745911
					c-1.3473053-1.8354034-3.5124054-2.9311066-5.7913055-2.9311066c-1.5335007,0-3.0002975,0.4811096-4.2402954,1.3908997
					c-3.1900024,2.3412018-3.8818054,6.8412018-1.5410004,10.031601l26.3549042,35.9170074
					c1.240799,1.6897888,3.1511993,2.7500916,5.2404938,2.9095917
					C135.4952087,244.2425537,135.6773987,244.2495575,135.8596039,244.2495575z"></path><g><path fill="#212785" d="M82.8495026 394.5883484l6.8802032.1080017c-.1823044 4.8761902-5.7218018 15.2676086.3699951 18.3482056 7.4570007 3.7702026 10.5410995 5.1413879 11.5033035 9.5951843.1112976.5150146-.3312988 1.0608215-.8751984 1.0523071l-22.9476013-.3599854c-.4814987-.0075989-.7837982-.4421082-.6199036-.9136047C77.9317017 420.1999512 83.3111038 398.6908569 82.8495026 394.5883484zM45.8904076 393.5040588l6.8705978.1714783c-.2278976 4.8802185-5.8579979 15.232605.1973 18.3729248 7.4124031 3.8433838 10.4798012 5.2446899 11.3990021 9.7124939.1063004.5166016-.3409042 1.0589905-.8840027 1.0453796l-22.915699-.5721741c-.4808006-.0120239-.778698-.4497986-.6105003-.9203186C40.7384071 419.0998535 46.3129082 397.615448 45.8904076 393.5040588z"></path><path fill="#4f5cd3" d="M90.3283005,402.0314636c-0.3402939,0.5875854-4.990799,0.6195984-7.8222961,0.5767822
								c-1.2593002-0.0140991-2.1583023-0.0434875-2.1583023-0.0434875l0.2169037-38.1354065
								c0.1166-2.771698,0.0792007-5.5291138-0.0143967-8.276001c-0.4523087-12.704895,5.9375916-63.7572021,5.9375916-63.7572021
								l-5.1740952-0.1885071c0,0-11.4703979,41.5443115-14.0522995,53.093811
								c-0.4157028,1.8512878-0.9708023,3.6625061-1.6063995,5.4837952
								c-0.6824036,1.966217-1.0024033,3.4364014-1.2692032,6.4720154
								c-0.3866997,4.3894958-11.0476952,45.370697-11.0476952,45.370697l-9.6511002-0.9186096
								c0,0,7.6414986-49.5109863,9.9589005-59.8688049c1.9930992-8.8995056,7.9524994-56.4884033,9.5807991-69.6630859
								c0.0251007-0.2001953,0.0492973-0.3941956,0.0714989-0.5761108c0.2182007-1.7894897,0.347702-2.8144836,0.347702-2.8144836
								l0.6061974,0.039978l42.6560974,2.3121033c0,0-0.0631027,0.5219116-0.1854019,1.461792
								c-0.0444946,0.3640137-0.1003952,0.8005066-0.1578979,1.2860107l-0.0093994,0.0603943
								c-0.0169983,0.1091919-0.0279999,0.2185974-0.0458984,0.3337097
								c-0.1243057,1.0310059-0.2844009,2.2926025-0.4679031,3.7423096
								c-1.7133026,13.6044922-5.4113998,43.4104004-6.2687988,52.0655823
								C98.6948013,341.4459534,90.7949066,401.2160645,90.3283005,402.0314636z"></path><path fill="#e4e8fd" d="M87.0049057 402.0662537l-.4336014-.25c.4706955-1.2344055 8.2509995-59.5742188 9.4160004-71.8398132.9532013-9.684082 5.386795-45.0800781 6.2657013-52.0776978.1865005-1.4458008.3436966-2.7070007.4715958-3.7391968l.4961014.0614929c-.1278992 1.0332031-.2851028 2.2954102-.4716034 3.7412109-.878891 6.9950867-5.3115997 42.3857117-6.2636948 52.0620117C95.4209061 341.2234497 87.5352097 401.1468506 87.0049057 402.0662537zM47.4141083 401.8352356l-.4941025-.0760803c.0760994-.4951172 7.6679001-49.6391907 9.9648018-59.8833008 2.0604973-9.1875 8.3974953-60.1026001 9.6474953-70.2159119l.3720016-3.0438843.8457031.0487976-.0293045.4990845-.3768997-.0214844-.3153992 2.5785828c-1.25 10.1177063-7.5898972 61.0541992-9.6552963 70.2640991C55.0791054 352.2132568 47.4903069 401.3401489 47.4141083 401.8352356z"></path><path fill="#3f47c7" d="M65.6541061 350.7867432c.6374969-1.8198853 1.1936951-3.6356812 1.6091995-5.4881897 2.463295-11.0329895 13.1108017-49.6856995 14.0505981-53.092804l-4.9078979.0024109c-1.6826019 2.5795898-3.1595993 5.7194824-3.8750992 8.6701965-1.9697037 8.1705017-3.3783035 16.3939819-4.7842026 24.6063843-5.1256981 30.0653076-10.7143974 46.9295044-15.8649979 77.0038147l1.4594994.1390991c0 0 10.6575966-40.9825134 11.044796-45.3680115C64.6547012 354.220459 64.9723053 352.7532349 65.6541061 350.7867432zM84.1149063 346.4405518c.3171997-17.6693115.3071976-36.6548157 6.0718994-53.9458923l-3.6985016-.0975952c-.6976013 5.6316833-6.3631973 51.8390808-5.9390945 63.7566833.0945969 2.7485046.130394 5.5032043.0126953 8.2778931l-.2155991 38.1357117c0 0 .8996964.0274048 2.1575012.0430908C84.4891052 379.5945435 83.7036057 369.3400574 84.1149063 346.4405518z"></path><path fill="#212785" d="M106.3199997,275.6144409c-3.3179932,0.821106-9.0846939,2.802002-18.8075943,1.8756104
						c-7.4933014-0.7167053-20.0267029-1.3143005-24.2856979-5.3125916
						c0.0251007-0.2001953,0.0492973-0.3941956,0.0714989-0.5761108c0.2182007-1.7894897,0.347702-2.8144836,0.347702-2.8144836
						l0.6061974,0.039978c4.2093964,4.1611023,16.7416992,3.8702087,24.2291031,4.586792
						c9.5977936,0.9113159,14.8463974,0.505127,18.2415924-0.8128967c0.0061035,0.0002136,0.0182037,0.0005188,0.0251999-0.0052795
						c-0.0644989,0.4909973-0.1240005,0.8729858-0.1830978,1.2912903l-0.0093994,0.0603943
						C106.4856033,274.395752,106.4142075,274.893158,106.3199997,275.6144409z"></path><polygon fill="#4f5cd3" points="80.13 270.709 78.845 270.586 77.056 278.566 78.34 278.688"></polygon><polygon fill="#4f5cd3" points="97.935 272.776 96.65 272.653 94.861 280.633 96.145 280.755"></polygon><path fill="#e4e8fd" d="M88.9706039,279.6343384l-4.5660019-0.4213867
								c-0.7327957-0.067688-1.1952972-0.7253113-1.0311966-1.4664001l0.5331955-2.4081116
								c0.1641006-0.7410889,0.8936081-1.2892761,1.6264038-1.2215881l4.5658951,0.4213867
								c0.7328033,0.0677185,1.1952057,0.7257996,1.031105,1.4669189l-0.5332031,2.4080811
								C90.4327011,279.1543579,89.7033005,279.7019348,88.9706039,279.6343384z M85.4289017,274.5869446
								c-0.4762955-0.0440063-0.9499969,0.3124084-1.056694,0.7944031l-0.5332031,2.4082031
								c-0.1067047,0.4815063,0.1933975,0.9093018,0.6697006,0.9533081l4.5658951,0.4213867
								c0.4764023,0.0440063,0.9500046-0.3124084,1.0567017-0.7938843l0.5331039-2.4082031
								c0.1068039-0.4819946-0.193306-0.9098206-0.6696014-0.9537964L85.4289017,274.5869446z"></path><polygon fill="#e4e8fd" points="84.613 288.836 84.153 288.792 86.307 279.186 86.767 279.23"></polygon><g><linearGradient id="SVGID_4_" x1="950.833" x2="955.033" y1="198.965" y2="273.763" gradientTransform="matrix(.9963 .0257 -.1558 .9997 -823.782 -26.616)" gradientUnits="userSpaceOnUse"><stop offset="0" stop-color="#f788a8"></stop><stop offset="1" stop-color="#ff4d7b"></stop></linearGradient><path fill="url(#SVGID_4_)" d="M106.8810043,271.7172546c-1.0997009,5.7843018-44.2020988,2.6004944-43.0945015-3.1835938
						c7.0331993-37.1944122,0.8874016-63.6055145,7.391201-69.592514c0.7228012-0.6661987,3.3506012-4.7467957,13.1081009-8.0859985
						c0.3857956-0.1333008,0.7874985-0.2662048,1.1958008-0.3912048c0.1338959-0.0442963,0.2756042-0.0882874,0.4173965-0.1324921
						c0.2968979-0.0720062,0.5677032-0.1287994,0.8541031-0.184906c0.0237961,0.0006104,0.0657959-0.0142975,0.0895004-0.0137024
						c1.7154999-0.3138885,3.4397964-0.532196,5.1559982-0.6470947c1.4279022-0.0986938,2.8604965-0.1253052,4.2820969-0.0805969
						c0.1896057,0.0048981,0.379303,0.0097961,0.5678024,0.0227051c0.3714981,0.009491,0.7404022,0.0349884,1.1174011,0.0606995
						c0.2979965,0.0233917,0.5981979,0.031189,0.9150009,0.0871887c1.3349991,0.09021,2.6800995,0.2682037,4.0366974,0.5261993
						c0.4393005,0.0830994,0.8853989,0.1743011,1.322403,0.2731018c0.3760986,0.0814056,0.7510986,0.1706085,1.124794,0.2680054
						c3.8507004,1.0070038,7.3773041,2.7702942,9.5109024,5.7315979
						C115.5804062,211.7342529,109.8190994,244.6299438,106.8810043,271.7172546z"></path><path fill="#ff4f7c" d="M67.1912079,267.3118591c0.1430969-5.1877136,0.9177933-8.5619202,1.3582993-13.753006
							c0.1994934-2.5953979,0.4788971-5.1916962,0.7207031-7.7879028c0.2475967-2.5670929,0.5606918-5.2727966,1.176796-7.9095001
							c0.6060944-2.6313934,1.5241013-5.2904968,2.4670944-7.7819977c0.9596024-2.5195007,1.8794022-5.0487061,2.8783035-7.5592041
							c1.956398-5.0310974,3.9877014-10.0444946,6.2285004-15.009201c-1.3630981,5.1685028-2.9356995,10.2889099-4.5830994,15.39151
							c-0.8029022,2.5558929-1.6852036,5.0935974-2.5274048,7.6408997c-0.9017944,2.5626984-1.7240982,4.9972992-2.278595,7.5425873
							c-0.6317978,2.5321045-0.9280014,5.0325012-1.2556992,7.6557007c-0.3626022,2.5979004-0.687706,5.1950989-1.092804,7.7931061
							C69.514801,258.730835,68.2572098,262.1115417,67.1912079,267.3118591z"></path></g><path id="XMLID_427_" fill="#fc8e8e" d="M55.2660065,289.7847595c0,0,0.7435989,2.5979919,1.2863998,3.2857971
					c0.5429001,0.6878052,1.8664017,1.7298889,2.1162987,1.9255066c0.2499008,0.1954956,1.455101,0.4068909,1.9337006,0.6201782
					c0.4787025,0.2134094,1.2915993,0.7756042,1.6340027,0.244812c0,0,0.5580978-1.3434143-0.7828026-1.8110962
					c0,0-0.9026985-0.5325012-1.5051994-0.5684204c0,0-0.4538002-0.8516846-1.1337013-1.4963989
					c-0.0977974-0.0927734-0.164299-0.2130737-0.1997986-0.3468018c-0.1259003-0.4734802,0.5205002-3.5566711,0.4095993-4.0092773
					l-0.1922989,3.9819946c0.0555992,0.1493835,0.1419983,0.2818909,0.2540016,0.3913879
					c0.3130989,0.3062134,0.9771996,0.9316101,1.3346977,1.0910034c0.4786987,0.2133179,0.854599,0.396698,1.3262024,0.4335022
					c0.4716988,0.0367126,2.0775948,0.3819885,2.4947968,0.260498c0.4173965-0.1214905,0.6905975-0.9143982,0.2649002-1.27771
					c-0.4258041-0.3632813-1.0060997-0.7165833-2.2775002-0.5737c0,0-0.4012985-0.6913757-1.1236992-0.9897766
					s0.8002014-0.2868042,0.8002014-0.2868042l0.528698,0.6105957c0,0,1.0023994,0.9361877,1.5502968,0.6047974
					c0.547905-0.3312988,0.3889999-1.2460022-0.3822975-1.834198c-0.7711983-0.5882874-1.8470993-2.5649109-1.8470993-2.5649109
					l-1.2737007-1.5074768l-1.8974991-2.7006226c0,0-1.6196976,0.540802-1.6324997,0.602417
					C56.9390068,283.9316406,55.2660065,289.7847595,55.2660065,289.7847595z"></path><path fill="#fcb3b3" d="M62.9046059,283.2000427c0.4406013-1.6040955,0.9348984-4.8043823,0.4076996-6.8950806l-6.1194,0.1682739
					c-0.3694,1.7989197-0.8331985,3.7849121-1.5636978,5.2495117c-0.4572029,0.9165039-0.7434998,1.888916-0.8887024,2.8656006
					c-0.0807991,0.5433044-0.1745987,1.1698914-0.2743988,1.82901c-0.2531013,1.6698914-0.8566017,3.5108032-0.9777985,4.0953979
					c-0.1211014,0.5846863,0.1808968,3.7770996,0.1553993,4.4132996c-0.0255013,0.6362,0.2989006,2.2239075,0.5890999,2.4004822
					c0.2901001,0.1766968,1.2104988-0.0596008,1.4584007-1.3605957c0.2478981-1.3009949-0.014801-2.1358032-0.014801-2.1358032
					s0.4702988-2.1638794,0.4283981-3.2233887c0,0,0.6697006-2.3904114,0.9749031-2.9168091
					c0.3051987-0.5263977,0.5466003-2.8475037,1.4726982-3.3914795c0.9259987-0.5439148,1.3188019,0.9243774,1.5228004,1.7619019
					c0.2041016,0.8373718,0.5163994,1.712677,0.831501,2.2947998c0.3150978,0.5820007,0.6121979,1.2505798,1.0634995,1.3151855
					c0.4514008,0.0645142,1.783699-0.4771118,1.6679993-1.6011047
					C63.5226059,286.9452515,62.4312057,284.923645,62.9046059,283.2000427z"></path><path fill="#f0f2fc" d="M65.0685043,267.7916565l-0.3747025,7.5437927
					c-0.1168976,2.3526917-2.1420937,4.4168091-4.5192947,4.605896l-0.4468002,0.035614
					c-2.3769989,0.1890869-4.2034988-1.5684204-4.0867004-3.9211121l0.3746986-7.5437927
					c0.1164017-2.3435974,2.1327019-4.4068909,4.5098-4.5960999l0.4468002-0.0354919
					C63.3495064,263.6912537,65.184906,265.4480591,65.0685043,267.7916565z"></path><linearGradient id="SVGID_5_" x1="3255.2" x2="3297.848" y1="-279.456" y2="-279.456" gradientTransform="matrix(-.9806 .3569 .2354 .9341 3346.758 -672.39)" gradientUnits="userSpaceOnUse"><stop offset="0" stop-color="#f788a8"></stop><stop offset="1" stop-color="#ff4d7b"></stop></linearGradient><path fill="url(#SVGID_5_)" d="M62.1128082,273.970459c2.7334976-0.9949951,4.9009933-3.5290222,5.2561951-6.4796143
					l3.0988007-25.7679901c0.4431-3.6882019,1.3236008-7.3819122,2.6177979-10.9806976l8.9356995-24.8429108
					c1.3289032-3.6934967-0.4992981-7.3755951-4.0821991-8.2236023c-3.5845947-0.8495941-7.5653992,1.4587097-8.8941956,5.15271
					l-8.9356003,24.8428955c-1.6716995,4.6486053-2.8098984,9.4217987-3.3833008,14.1871033l-3.0988007,25.7675018
					c-0.4557991,3.7897034,2.2512016,6.8312988,6.0461998,6.7940063
					C60.5132065,274.4120483,61.3363075,274.2530518,62.1128082,273.970459z"></path><g><path fill="#fff" d="M105.3647995,190.6430511c-0.5614929,1.6177979-1.7830963,3.091095-3.5384979,4.2720032
							c-2.1371994,1.4416962-4.8469009,2.2796021-7.6276016,2.3510895c-0.263298,0.0091095-0.5331955,0.0101013-0.7940979,0.0034027
							c-5.1059952-0.131897-8.8144989-2.8153992-9.1187973-6.4143982c0.3857956-0.1333008,0.7874985-0.2662048,1.1958008-0.3912048
							c0.1338959-0.0442963,0.2756042-0.0882874,0.4173965-0.1324921c0.2968979-0.0720062,0.5677032-0.1287994,0.8541031-0.184906
							c0.0237961,0.0006104,0.0657959-0.0142975,0.0895004-0.0137024c1.7154999-0.3138885,3.4397964-0.532196,5.1559982-0.6470947
							c1.6076965-0.030304,3.2391968-0.0596924,4.8498993-0.0578918c0.3714981,0.009491,0.7404022,0.0349884,1.1174011,0.0606995
							c0.2979965,0.0233917,0.5981979,0.031189,0.9150009,0.0871887c1.3349991,0.09021,2.6800995,0.2682037,4.0366974,0.5261993
							c0.4393005,0.0830994,0.8853989,0.1743011,1.322403,0.2731018
							C104.6161041,190.4564514,104.9911041,190.5456543,105.3647995,190.6430511z"></path><linearGradient id="SVGID_6_" x1="868.893" x2="868.741" y1="184.721" y2="194.992" gradientTransform="matrix(1 0 -.1301 1 -749.174 0)" gradientUnits="userSpaceOnUse"><stop offset=".004" stop-color="#fcb3b3"></stop><stop offset="1" stop-color="#fc8e8e"></stop></linearGradient><path fill="url(#SVGID_6_)" d="M104.2400055,190.3750458c-1.1138,3.1244049-5.2424011,5.5817108-9.9204025,5.7078094
							c-4.893898,0.1363983-8.6606979-2.3256989-8.8379974-5.6189117c0.1338959-0.0442963,0.2756042-0.0882874,0.4173965-0.1324921
							c0.2968979-0.0720062,0.5677032-0.1287994,0.8541031-0.184906c0.0237961,0.0006104,0.0657959-0.0142975,0.0895004-0.0137024
							c0.7438965-0.1399994,1.4920959-0.2558899,2.2445984-0.3480988l2.7840042-17.867691
							c0.4521942-2.9024963,3.1666946-5.1972961,6.059494-5.1226044c1.4465027,0.0373993,2.6593018,0.6578979,3.4661026,1.6421967
							c0.8003006,0.9761047,1.1734009,2.2996063,0.9472961,3.7508087l-2.7184982,17.447403
							c1.0874023,0.0997925,2.1901016,0.2556,3.2919998,0.4670868
							C103.3569031,190.1850433,103.8030014,190.2762451,104.2400055,190.3750458z"></path><linearGradient id="SVGID_7_" x1="868.688" x2="868.891" y1="162.334" y2="182.979" gradientTransform="matrix(1 0 -.1301 1 -749.174 0)" gradientUnits="userSpaceOnUse"><stop offset=".004" stop-color="#fcb3b3"></stop><stop offset="1" stop-color="#fc8e8e"></stop></linearGradient><path fill="url(#SVGID_7_)" d="M107.5541,161.4051514l-0.3938904,12.8970947
								c-0.1621094,5.3061981-4.6611099,10.0482025-10.0361099,10.5763092
								c-5.3750992,0.5281982-9.6106949-3.3556061-9.4485931-8.6618042l0.3939972-12.8970032
								c0.1621017-5.3061981,4.6612015-10.0482025,10.0363007-10.5764008
								c2.6874008-0.2639923,5.0811005,0.5664063,6.8185959,2.1607971
								C106.6258011,156.4627533,107.6352081,158.7512512,107.5541,161.4051514z"></path><linearGradient id="SVGID_8_" x1="855.799" x2="860.179" y1="167.908" y2="167.908" gradientTransform="matrix(1 0 -.1301 1 -749.174 0)" gradientUnits="userSpaceOnUse"><stop offset=".004" stop-color="#fcb3b3"></stop><stop offset="1" stop-color="#fc8e8e"></stop></linearGradient><path fill="url(#SVGID_8_)" d="M88.6283035,171.9971466c-0.9778976,0.1571045-1.7203979-0.6138916-2.1882019-1.3999939
								c-0.8087997-1.3643951-1.2657013-2.9488068-1.3470001-4.6123962
								c-0.0294952-0.6847992,0.0821075-1.5472107,0.7145004-1.963501c0.3590012-0.2643127,0.837204-0.2742004,1.2231979-0.1285095
								c0.3858032,0.146698,0.6824036,0.428009,0.9304047,0.7302094c0.7021027,0.884491,1.0610962,2.0770874,0.9641953,3.2823944
								L88.6283035,171.9971466z"></path><linearGradient id="SVGID_9_" x1="856.165" x2="884.241" y1="158.99" y2="158.99" gradientTransform="matrix(1 0 -.1301 1 -749.174 0)" gradientUnits="userSpaceOnUse"><stop offset="0" stop-color="#4048c8"></stop><stop offset="1" stop-color="#2d32a4"></stop></linearGradient><path fill="url(#SVGID_9_)" d="M111.7947998,161.53125c-4.5511932,2.7725067-20.0723953,0.3365936-20.3306961,0.2205963
									c-0.0253983-0.0023956-0.0680008,0.0720978-0.0967026,0.2004089
									c-0.3310013,1.303299-1.0764999,8.5473938-1.9172974,9.6448975
									c-0.9143982,1.1952972-0.5463028-1.4259033-0.6965027-2.0818024
									c-0.1376953-0.654007-0.6430969-4.7982025-0.6430969-4.7982025s0.0523987-1.9055939-0.5811005-3.5762024
									c-0.6464996-1.6707001-1.8158035-5.5643921,0.447197-8.1620941
									c2.2505035-2.5995026,4.4793015-1.1831055,4.4793015-1.1831055s6.3516998-6.303894,12.1053009-5.6766968
									c5.7537003,0.6271973,2.6939011,5.1643066,2.6939011,5.1643066s3.0454025-0.7831116,5.0982971-0.3119049
									c1.0372009,0.2164001,1.8070984,0.7608032,1.8315048,1.8621979
									C114.184906,152.8336487,116.348999,158.7461548,111.7947998,161.53125z"></path><linearGradient id="SVGID_10_" x1="883.331" x2="882.509" y1="168.01" y2="167.188" gradientTransform="matrix(1 0 -.1301 1 -749.174 0)" gradientUnits="userSpaceOnUse"><stop offset="0" stop-color="#4048c8"></stop><stop offset="1" stop-color="#2d32a4"></stop></linearGradient><path fill="url(#SVGID_10_)" d="M111.7947998,161.53125c-4.5511932,2.7725067-20.0723953,0.3365936-20.3306961,0.2205963
									c-0.0253983-0.0023956-0.0680008,0.0720978-0.0967026,0.2004089
									c-0.0839996-0.0866089-0.152298-0.1851044-0.2081909-0.2817993
									c0.4208908-0.3784027,1.2751923-0.1532135,1.7647934-0.1455078
									c0.7074966,0.0149994,1.4179001,0.0169983,2.1213989-0.0072937c1.4169006-0.0348969,2.8508987-0.146698,4.2659988-0.4048004
									c2.9653015-0.5416107,5.9544983-1.7089996,8.3275986-3.7601013
									c2.0353012-1.7555084,3.4949036-3.9985046,4.7144012-6.3813019
									c1.0372009,0.2164001,1.8070984,0.7608032,1.8315048,1.8621979
									C114.184906,152.8336487,116.348999,158.7461548,111.7947998,161.53125z"></path><g><path fill="#121c7c" d="M104.969101 166.5305481c-1.1125946.365509-2.4813995.2662964-3.4077988-.2442932-.2014008-.1110992-.1615982-.3066101.0784988-.3854065.5537033-.1817017 1.1730042-.2476044 1.7745056-.2039032.5942993.0431976 1.1665955.1952057 1.6312943.4475098C105.2490997 166.2549438 105.2098007 166.4515533 104.969101 166.5305481zM95.8878021 166.2795563c-1.0470963.5737915-2.4421997.7567902-3.4798965.4550934-.2263031-.0630035-.2248001-.2602997.0020981-.386795.5156021-.2828979 1.1298981-.4721985 1.7384033-.552002.6082993-.0798035 1.218399-.0500031 1.7341995.0973969C96.108902 165.9562531 96.1147003 166.1530457 95.8878021 166.2795563z"></path><path fill="#fff" d="M95.5983047,181.5563507c-1.3471985,0.0151062-2.1371002-0.9246979-2.3970947-1.540802
									c-0.0746078-0.1761017,0.018692-0.3970947,0.2071915-0.4947968
									c0.1885986-0.0984955,0.4020996-0.0343018,0.4776001,0.1407928c0.0298004,0.0681,0.740303,1.6580048,2.6372986,1.008606
									c0.1985016-0.0681,0.3951035,0.0310059,0.4381027,0.2207031c0.0430984,0.1898956-0.0822983,0.3988953-0.281601,0.4671021
									C96.2863998,181.4926453,95.9262085,181.5526428,95.5983047,181.5563507z"></path><path fill="#121c7c" d="M95.8922043 171.3346558c-.0455017.3833923-.3937988.6976929-.7777023.7019958-.3839951.004303-.6582947-.303009-.6128006-.6864014.0456009-.3834076.3937988-.6976929.7778015-.7021027C95.6635056 170.6438446 95.9378052 170.9512482 95.8922043 171.3346558zM102.7801056 171.2573547c-.0456009.3833923-.3937988.6976929-.7777023.7019958-.3840027.0043945-.6584015-.3029938-.6128006-.6864014.0456009-.3833923.3937988-.6976929.7778015-.7019958C102.5513 170.5666504 102.8257065 170.8739471 102.7801056 171.2573547z"></path><path fill="#fff" d="M102.3175049 175.1497498c-1.9085999.0214996-3.2779999-1.5115967-3.0513992-3.4176025.2264938-1.9059906 1.9644012-3.473999 3.8730011-3.4954987 1.9085999-.0213928 3.2778931 1.511795 3.0513992 3.4178009C105.9640045 173.5604553 104.2261047 175.1283569 102.3175049 175.1497498zM103.0697021 168.8208466c-1.5864944.017807-3.0297012 1.3209991-3.2178955 2.9048004-.1882019 1.5838013.9487 2.8578033 2.5350952 2.8399963 1.5865021-.0177917 3.0297012-1.3208008 3.2179031-2.9045868C105.7929993 170.0772552 104.656105 168.8030548 103.0697021 168.8208466zM94.4202042 175.2384491c-1.9085999.0214081-3.2779999-1.5115967-3.0514984-3.4176941.2265015-1.9060059 1.9644012-3.473999 3.8730011-3.4954071 1.908699-.0214996 3.277298 1.5117035 3.0507965 3.4178009C98.0660019 173.6491547 96.328804 175.2169495 94.4202042 175.2384491zM95.1723022 168.9094543c-1.5863953.0177917-3.0296021 1.3209991-3.2177963 2.9048004-.1883011 1.5838013.9486008 2.8577881 2.5350952 2.8399963 1.5858002-.017807 3.0289001-1.3208008 3.2171021-2.9046021C97.8950043 170.1658478 96.7581024 168.8916473 95.1723022 168.9094543z"></path><path fill="#fff" d="M98.093605,171.9638519l-0.3350983-0.433609c0.4679947-0.3784943,0.8862-0.5541992,1.2662964-0.5167999
									c0.3201981,0.0308075,0.5867996,0.2123108,0.7911987,0.5391083l-0.5126953,0.3522949
									c-0.1204071-0.1934967-0.2546005-0.294693-0.4097061-0.3096924
									C98.6919022,171.5751495,98.4156036,171.7032471,98.093605,171.9638519z"></path></g></g></g></g><g><polygon fill="#dadaf5" points="214.145 189.175 167.944 200.052 170.862 203.095"></polygon><polygon fill="#eaeafa" points="214.145 189.175 158.829 217.077 166.731 203.095"></polygon><polygon fill="#eaeafa" points="214.145 189.175 176.158 192.793 167.944 200.052"></polygon><polygon fill="#dadaf5" points="170.22 211.319 175.176 215.822 214.144 189.176"></polygon><polygon fill="#c8c8ee" points="170.22 211.319 172.253 213.166 214.144 189.176"></polygon></g></svg>